<?xml version="1.0" encoding="UTF-8" standalone="no"?>
<!DOCTYPE svg PUBLIC "-//W3C//DTD SVG 20010904//EN"
              "http://www.w3.org/TR/2001/REC-SVG-20010904/DTD/svg10.dtd">

<svg xmlns="http://www.w3.org/2000/svg"
     width="20in" height="2.22222in"
     viewBox="0 0 1800 200">
  <path id="Imported Path"
        fill="#0b5351" stroke="#0b5351" stroke-width="1"
        d="M 0.00,120.00
           C 0.00,120.00 60.00,110.00 60.00,110.00
             120.00,100.00 240.00,80.00 360.00,73.31
             480.00,66.88 600.00,73.12 720.00,93.31
             840.00,113.12 960.00,146.88 1080.00,146.69
             1200.00,146.88 1320.00,113.12 1440.00,96.69
             1560.00,80.00 1680.00,80.00 1740.00,80.00
             1740.00,80.00 1800.00,80.00 1800.00,80.00
             1800.00,80.00 1800.00,0.00 1800.00,0.00
             1800.00,0.00 1740.00,0.00 1740.00,0.00
             1680.00,0.00 1560.00,0.00 1440.00,0.00
             1320.00,0.00 1200.00,0.00 1080.00,0.00
             960.00,0.00 840.00,0.00 720.00,0.00
             600.00,0.00 480.00,0.00 360.00,0.00
             240.00,0.00 120.00,0.00 60.00,0.00
             60.00,0.00 0.00,0.00 0.00,0.00
             0.00,0.00 0.00,120.00 0.00,120.00 Z" />
</svg>
