<?xml version="1.0" encoding="UTF-8" standalone="no"?>
<!DOCTYPE svg PUBLIC "-//W3C//DTD SVG 20010904//EN"
              "http://www.w3.org/TR/2001/REC-SVG-20010904/DTD/svg10.dtd">

<svg xmlns="http://www.w3.org/2000/svg"
     width="19.9889in" height="1.9in"
     viewBox="0 0 1799 171">
  <path id="Imported Path"
        fill="#cb769e" stroke="#cb769e" stroke-width="2"
        d="M 0.00,51.00
           C 0.00,51.00 60.00,44.31 60.00,44.31
             120.00,37.88 240.00,24.12 360.00,37.69
             480.00,51.00 600.00,91.00 720.00,104.31
             840.00,117.88 960.00,104.12 1080.00,81.00
             1200.00,57.88 1320.00,24.12 1440.00,11.00
             1560.00,-2.12 1680.00,4.12 1740.00,7.69
             1740.00,7.69 1800.00,11.00 1800.00,11.00
             1800.00,11.00 1800.00,171.00 1800.00,171.00
             1800.00,171.00 1740.00,171.00 1740.00,171.00
             1680.00,171.00 1560.00,171.00 1440.00,171.00
             1320.00,171.00 1200.00,171.00 1080.00,171.00
             960.00,171.00 840.00,171.00 720.00,171.00
             600.00,171.00 480.00,171.00 360.00,171.00
             240.00,171.00 120.00,171.00 60.00,171.00
             60.00,171.00 0.00,171.00 0.00,171.00
             0.00,171.00 0.00,51.00 0.00,51.00 Z" />
</svg>
