<?xml version="1.0" encoding="UTF-8" standalone="no"?>
<!DOCTYPE svg PUBLIC "-//W3C//DTD SVG 20010904//EN"
              "http://www.w3.org/TR/2001/REC-SVG-20010904/DTD/svg10.dtd">

<svg xmlns="http://www.w3.org/2000/svg"
     width="20in" height="1.11111in"
     viewBox="0 0 1800 100">
  <path id="Imported Path"
        fill="#001242" stroke="#001242" stroke-width="1"
        d="M 0.00,0.00
           C 0.00,0.00 42.88,10.00 42.88,10.00
             85.75,20.00 171.25,40.00 257.50,50.00
             342.88,60.00 428.75,60.00 513.75,55.00
             600.00,50.00 686.25,40.00 771.25,33.34
             857.12,26.56 942.50,23.44 1028.75,35.00
             1114.25,46.56 1200.00,73.44 1286.25,73.34
             1371.38,73.44 1457.50,46.56 1542.50,36.66
             1628.62,26.56 1713.75,33.44 1757.50,36.66
             1757.50,36.66 1800.00,40.00 1800.00,40.00
             1800.00,40.00 1800.00,100.00 1800.00,100.00
             1800.00,100.00 1757.12,100.00 1757.12,100.00
             1714.25,100.00 1628.75,100.00 1542.50,100.00
             1457.12,100.00 1371.25,100.00 1286.25,100.00
             1200.00,100.00 1113.75,100.00 1028.75,100.00
             942.88,100.00 857.50,100.00 771.25,100.00
             685.75,100.00 600.00,100.00 513.75,100.00
             428.62,100.00 342.50,100.00 257.50,100.00
             171.38,100.00 86.25,100.00 42.50,100.00
             42.50,100.00 0.00,100.00 0.00,100.00
             0.00,100.00 0.00,0.00 0.00,0.00 Z" />
</svg>
