<?xml version="1.0" standalone="no"?><svg xmlns="http://www.w3.org/2000/svg" viewBox="0 0 1440 320"><path fill="#001242" fill-opacity="1" d="M0,0L34.3,32C68.6,64,137,128,206,160C274.3,192,343,192,411,176C480,160,549,128,617,106.7C685.7,85,754,75,823,112C891.4,149,960,235,1029,234.7C1097.1,235,1166,149,1234,117.3C1302.9,85,1371,107,1406,117.3L1440,128L1440,320L1405.7,320C1371.4,320,1303,320,1234,320C1165.7,320,1097,320,1029,320C960,320,891,320,823,320C754.3,320,686,320,617,320C548.6,320,480,320,411,320C342.9,320,274,320,206,320C137.1,320,69,320,34,320L0,320Z"></path></svg>