<?xml version="1.0" encoding="UTF-8" standalone="no"?>
<!DOCTYPE svg PUBLIC "-//W3C//DTD SVG 20010904//EN"
              "http://www.w3.org/TR/2001/REC-SVG-20010904/DTD/svg10.dtd">

<svg xmlns="http://www.w3.org/2000/svg"
     width="6in" height="0.666667in"
     viewBox="0 0 1800 200">
  <path id="Imported Path"
        fill="#abceda" stroke="#abceda" stroke-width="1"
        d="M 0.00,40.00
           C 0.00,40.00 60.00,60.00 60.00,60.00
             120.00,80.00 240.00,120.00 360.00,140.00
             480.00,160.00 600.00,160.00 720.00,143.31
             840.00,126.88 960.00,93.12 1080.00,70.00
             1200.00,46.88 1320.00,33.12 1440.00,33.31
             1560.00,33.12 1680.00,46.88 1740.00,53.31
             1740.00,53.31 1800.00,60.00 1800.00,60.00
             1800.00,60.00 1800.00,200.00 1800.00,200.00
             1800.00,200.00 1740.00,200.00 1740.00,200.00
             1680.00,200.00 1560.00,200.00 1440.00,200.00
             1320.00,200.00 1200.00,200.00 1080.00,200.00
             960.00,200.00 840.00,200.00 720.00,200.00
             600.00,200.00 480.00,200.00 360.00,200.00
             240.00,200.00 120.00,200.00 60.00,200.00
             60.00,200.00 0.00,200.00 0.00,200.00
             0.00,200.00 0.00,40.00 0.00,40.00 Z" />
</svg>
